FFmpeg version SVN-r25716, Copyright (c) 2000-2010 the FFmpeg developers  built on Nov 10 2010 12:23:18 with gcc 4.1.2 20080704 (Red Hat 4.1.2-48)  configuration: --enable-libmp3lame --enable-shared --disable-mmx --arch=x86_64  libavutil     50.33. 0 / 50.33. 0  libavcore      0.12. 1 /  0.12. 1  libavcodec    52.94. 4 / 52.94. 4  libavformat   52.84. 0 / 52.84. 0  libavdevice   52. 2. 2 / 52. 2. 2  libavfilter    1.59. 0 /  1.59. 0  libswscale     0.12. 0 /  0.12. 0Seems stream 0 codec frame rate differs from container frame rate: 600.00 (600/1) -> 15.00 (15/1)Input #0, mov,mp4,m4a,3gp,3g2,mj2, from '/RAID10/data/converted_video_files/42161.mov':  Metadata:    major_brand     : qt      minor_version   : 537199360    compatible_brands: qt    Duration: 00:00:09.60, start: 0.000000, bitrate: 22145 kb/s    Stream #0.0(eng): Video: mjpeg, yuvj420p, 1388x1040 [PAR 1:1 DAR 347:260], 22143 kb/s, 15 fps, 15 tbr, 600 tbn, 600 tbc[buffer @ 0xb7162a0] w:1388 h:1040 pixfmt:yuvj420p[ffsink @ 0xb716510] auto-inserting filter 'auto-inserted scaler 0' between the filter 'src' and the filter 'out'[scale @ 0xb715720] w:1388 h:1040 fmt:yuvj420p -> w:1388 h:1040 fmt:yuv420p flags:0x4Output #0, flv, to '/RAID10/data/converted_video_files/42161.flv':  Metadata:    encoder         : Lavf52.84.0    Stream #0.0(eng): Video: flv, yuv420p, 1388x1040 [PAR 1:1 DAR 347:260], q=2-31, 600 kb/s, 1k tbn, 24 tbcStream mapping:  Stream #0.0 -> #0.0Press [q] to stop encodingframe=    7 fps=  0 q=9.7 size=     680kB time=0.46 bitrate=12131.5kbits/s    frame=   13 fps= 11 q=21.8 size=     762kB time=0.83 bitrate=7480.5kbits/s    frame=   20 fps= 12 q=31.0 size=     794kB time=1.29 bitrate=5038.3kbits/s    frame=   28 fps= 13 q=31.0 size=     869kB time=1.83 bitrate=3883.7kbits/s    frame=   36 fps= 13 q=31.0 size=     904kB time=2.38 bitrate=3119.2kbits/s    frame=   44 fps= 13 q=31.0 size=     986kB time=2.92 bitrate=2770.0kbits/s    frame=   52 fps= 14 q=31.0 size=    1070kB time=3.46 bitrate=2534.1kbits/s    frame=   60 fps= 14 q=31.0 size=    1116kB time=3.96 bitrate=2309.3kbits/s    frame=   68 fps= 14 q=31.0 size=    1187kB time=4.50 bitrate=2160.9kbits/s    frame=   76 fps= 14 q=31.0 size=    1266kB time=5.04 bitrate=2057.2kbits/s    frame=   84 fps= 14 q=31.0 size=    1307kB time=5.58 bitrate=1917.5kbits/s    frame=   92 fps= 14 q=31.0 size=    1383kB time=6.12 bitrate=1849.6kbits/s    frame=  100 fps= 14 q=31.0 size=    1455kB time=6.62 bitrate=1798.9kbits/s    frame=  108 fps= 14 q=31.0 size=    1509kB time=7.17 bitrate=1725.0kbits/s    frame=  116 fps= 15 q=31.0 size=    1586kB time=7.71 bitrate=1685.4kbits/s    frame=  124 fps= 15 q=31.0 size=    1668kB time=8.25 bitrate=1656.1kbits/s    frame=  132 fps= 15 q=31.0 size=    1714kB time=8.75 bitrate=1605.1kbits/s    frame=  140 fps= 15 q=31.0 size=    1790kB time=9.29 bitrate=1578.6kbits/s    frame=  144 fps= 15 q=31.0 Lsize=    1811kB time=9.58 bitrate=1547.6kbits/s    video:1808kB audio:0kB global headers:0kB muxing overhead 0.135782%